<?xml version="1.0" ?><svg height="60px" version="1.1" viewBox="0 0 60 60" width="60px" xmlns="http://www.w3.org/2000/svg" xmlns:sketch="http://www.bohemiancoding.com/sketch/ns" xmlns:xlink="http://www.w3.org/1999/xlink"><title/><desc/><defs/><g fill="none" fill-rule="evenodd" id="Page-1" stroke="none" stroke-width="1"><g fill="#0A0B09" id="Fill-1-+-Fill-2-+-Fill-3"><path d="M7,38 C7,48.327 14.048,55 24.956,55 C35.917,55 43,48.327 43,38 C43,37.447 42.552,37 42,37 L8,37 C7.448,37 7,37.447 7,38 L7,38 Z M40.976,39 C40.545,47.664 34.491,53 24.956,53 C15.474,53 9.452,47.664 9.024,39 L40.976,39 L40.976,39 Z" id="Fill-1"/><path d="M58.294,2.88 L56.12,0.706 C54.953,-0.463 53.051,-0.464 51.879,0.703 L39.148,13.409 C34.973,10.533 30.107,9 25,9 C11.215,9 0,20.215 0,34 C0,47.785 11.215,59 25,59 C38.785,59 50,47.785 50,34 C50,28.892 48.467,24.026 45.59,19.852 L58.296,7.12 C59.463,5.951 59.462,4.049 58.294,2.88 L58.294,2.88 Z M50.008,12.594 L46.406,8.992 L48.994,6.408 L52.591,10.005 L50.008,12.594 L50.008,12.594 Z M37.611,25.016 C36.729,23.525 35.475,22.271 33.984,21.389 L44.99,10.404 L48.595,14.01 L37.611,25.016 L37.611,25.016 Z M48,34 C48,46.683 37.682,57 25,57 C12.318,57 2,46.683 2,34 C2,21.317 12.318,11 25,11 C29.573,11 33.937,12.336 37.708,14.846 L32.044,20.499 C31.079,20.179 30.056,20 29,20 C28.448,20 28,20.447 28,21 C28,21.553 28.448,22 29,22 C32.308,22 35.219,24.135 36.416,27.071 L36.419,27.079 C36.789,27.99 37,28.975 37,30 C37,30.553 37.448,31 38,31 C38.552,31 39,30.553 39,30 C39,28.943 38.821,27.92 38.501,26.955 L44.153,21.292 C46.663,25.062 48,29.425 48,34 L48,34 Z M56.88,5.708 L54.004,8.59 L50.41,4.996 L53.292,2.119 C53.682,1.73 54.316,1.729 54.706,2.12 L56.88,4.294 C57.269,4.684 57.269,5.317 56.88,5.708 L56.88,5.708 Z" id="Fill-2"/><path d="M15,31 C17.757,31 20,28.757 20,26 C20,23.243 17.757,21 15,21 C12.243,21 10,23.243 10,26 C10,28.757 12.243,31 15,31 L15,31 Z M15,23 C16.654,23 18,24.346 18,26 C18,27.654 16.654,29 15,29 C13.346,29 12,27.654 12,26 C12,24.346 13.346,23 15,23 L15,23 Z" id="Fill-3"/></g></g></svg>